#!OML:ASF F:\VICON\USERDATA\INSTALL\rory3\rory3.ASF
:FULLY-SPECIFIED
:DEGREES
54
root -6.107423708061834 17.882911548721324 2.022226605904045 12.700768018583261 62.013937331684915 -5.65393739016919
lfemur -22.507742830416408 27.24755462960331 -0.17323876383794978
ltibia 34.91460494956807
lfoot -5.7131924355792645 12.651101332581634
ltoes -21.432212166178896
rfemur -38.359592623970904 8.705174347756621 22.947022876044198
rtibia 28.66178311296974
rfoot -8.292591238378115 11.915891406157835
rtoes 8.800620477320528
lowerback 6.10426052100126 -9.003533448362484 -10.653060782228506
upperback 2.4848175220413466 -12.557796646893284 -1.0144596652431788
thorax 1.477201867268373 -6.480037230941862 5.742860442417779
lowerneck -8.087054875062604 19.244617102677704 2.237428671784748
upperneck 17.06898580016663 28.79641612518759 -12.579445971689807
head 9.039650049767893 12.752970594972904 -1.528258961559008
lclavicle -4.0844270215204455e-15 -9.28177530512436e-15
lhumerus 105.03461329990128 -47.39698379561128 43.81817386376448
lradius 30.416832826812353
lwrist 2.353062531367316
lhand -11.673841392078945 3.9171461279642124
lfingers 7.125020000000001
lthumb -165.64754728685364 73.45383372436103
rclavicle -4.084427021520446e-15 -9.28177530512436e-15
rhumerus 32.2717604382274 -21.445568700820004 -66.09098453286789
rradius 97.64704056079857
rwrist -17.20218322998256
rhand -62.936725838716434 22.71937322003412
rfingers 7.125020000000001
rthumb -34.96912786033036 -4.560823043730117
55
root -6.141742117060801 17.882636766576578 1.7637127625615194 7.204051870309371 67.51334785751465 -11.824143957073858
lfemur -26.286917718849814 26.42908076831273 -2.072048989539115
ltibia 34.83973178840385
lfoot -6.412635059508231 11.038151200514827
ltoes -20.28598462906171
rfemur -39.22709713464955 6.530269108246562 21.792107514409068
rtibia 28.752780669287205
rfoot -8.759430211968763 7.2275044189882625
rtoes 2.8727744878986776
lowerback 6.047995319775415 -9.171242334528687 -9.618341381398178
upperback 3.090728950476956 -12.65312144840771 -0.09675233465719435
thorax 2.110009127661136 -6.581588075847552 6.033135343038431
lowerneck -8.757652423044723 18.085070356462502 2.9208363592523097
upperneck 17.94336773788688 27.35160258297383 -12.927344414458318
head 9.45500184883865 11.996168353393044 -1.7591506544685527
lclavicle -4.515332883619835e-15 -9.649448772737026e-15
lhumerus 101.82109024115667 -49.7669813589358 45.75918457681334
lradius 28.921537120261114
lwrist 2.1315152950084197
lhand -10.894045911729629 5.420264031916645
lfingers 7.125020000000001
lthumb -164.89508750158566 73.40955694235264
rclavicle -4.5153328836198344e-15 -9.649448772737026e-15
rhumerus 30.11063697327492 -20.93348300721222 -68.28437164294513
rradius 96.0490879443395
rwrist -19.90532260260392
rhand -63.18982560640505 21.3815687164693
rfingers 7.125020000000001
rthumb -35.212305078090125 -5.868360807840219
56
root -6.169899350621342 17.88416875115627 1.4994083893096577 -3.2347760476092446 73.20195084966642 -22.843952759540755
lfemur -30.008625883427147 24.945651495582343 -4.083791544652662
ltibia 34.646348689896634
lfoot -6.840129593544146 8.94113850292071
ltoes -19.204489194946564
rfemur -39.65962569827957 4.29891048302827 20.38999513431196
rtibia 29.021113571903594
rfoot -9.1349072238291 1.944918001936193
rtoes -3.1732271755933787
lowerback 5.78270609522777 -9.335865952201187 -8.286849914929928
upperback 3.7685143847438605 -12.726072860409438 0.9723980134073497
thorax 2.910463768038904 -6.668763087751795 6.310166134680497
lowerneck -9.510330940835535 16.655194442187366 3.6043521019717444
upperneck 18.985109547288086 25.561019055255958 -13.268447581099185
head 9.908996303418636 11.070947282637357 -2.0472552163463247
lclavicle -4.642478076374498e-15 -9.766141215868822e-15
lhumerus 97.74912506821802 -52.06427601570556 48.626328467197055
lradius 27.438281184092876
lwrist 1.803963150539893
lhand -10.325119331996042 7.26388838160474
lfingers 7.125020000000001
lthumb -164.34483640382925 75.1807128079912
rclavicle -4.642478076374499e-15 -9.766141215868822e-15
rhumerus 27.511033850758896 -20.255733517464467 -70.2648759587909
rradius 94.36031698314258
rwrist -22.728078039009866
rhand -63.560805005341564 20.409147618899617
rfingers 7.125020000000001
rthumb -35.56672716922854 -6.784865089517356
57
root -6.1910663495204385 17.88968974780083 1.2361227890464817 -19.81906294535817 78.54239242647657 -39.84668548786229
lfemur -33.39345321412053 22.758589999076317 -6.144924542732538
ltibia 34.2032788707741
lfoot -7.023356088068125 6.3167068426091415
ltoes -18.62184083923579
rfemur -39.57378123653927 2.1200649085668273 18.67436519433078
rtibia 29.42792881078126
rfoot -9.40210595331774 -3.7511569507259503
rtoes -8.58727378685753
lowerback 5.198557381203674 -9.523606013834371 -6.718183916014934
upperback 4.460964152826243 -12.834963002542942 2.1631613709906072
thorax 3.8864325575616796 -6.762286582993797 6.527680319745284
lowerneck -10.367293597036294 14.99426789316272 4.261793700488466
upperneck 20.24562125058692 23.46519725799256 -13.595895897198648
head 10.409471198817679 10.004436314382124 -2.3966788544481705
lclavicle -4.5650165469742435e-15 -9.718117249826949e-15
lhumerus 92.623553143634 -54.5352028227006 52.332288110904436
lradius 25.93822542578465
lwrist 1.3392964916101562
lhand -9.864672132618061 9.570596706842933
lfingers 7.125020000000001
lthumb -163.89872940819433 78.69133928722917
rclavicle -4.565016546974243e-15 -9.718117249826949e-15
rhumerus 24.034389695460685 -19.357195264945755 -72.07437708377218
rradius 92.48429530625377
rwrist -26.035394580761814
rhand -64.02744468208775 19.739631555234872
rfingers 7.125020000000001
rthumb -36.0116173862818 -7.382977086790742
58
root -6.199799897136032 17.899481484401704 0.9619825465107468 -43.36034642916428 82.65067640225755 -63.49718713424437
lfemur -36.12138757355284 19.800668885847532 -8.27146010975906
ltibia 33.37546896423004
lfoot -6.84666710558121 2.824234250058595
ltoes -18.04087963776798
rfemur -38.66844055434516 -0.021901546232031333 16.696591343932678
rtibia 30.03049576739536
rfoot -9.643925733864055 -9.965792548821788
rtoes -12.720059953110987
lowerback 4.247151008903339 -9.654156013734493 -4.86962531188978
upperback 5.072479789842541 -12.873059733277607 3.4547542863590768
thorax 4.9716598411301165 -6.798432461267343 6.679405676129238
lowerneck -11.203705502790111 12.895437978682393 4.744311876970759
upperneck 21.698158061009273 20.80393076391008 -13.862981659000617
head 10.902524988940144 8.682866436840687 -2.795920654253277
lclavicle -4.420785726032491e-15 -9.642062907024167e-15
lhumerus 86.13991054455023 -56.681953550348 56.978999968141224
lradius 24.430676940580454
lwrist 0.7756725026139009
lhand -9.51584349142479 12.321674373418817
lfingers 7.125020000000001
lthumb -163.55936414340755 80.6288116463311
rclavicle -4.42078572603249e-15 -9.642062907024166e-15
rhumerus 19.806212724179115 -18.0062085210747 -73.73322296904739
rradius 90.1225923452101
rwrist -29.77908478311602
rhand -64.46760362498294 19.132164011791584
rfingers 7.125020000000001
rthumb -36.429488085552926 -7.89984212949913
